<?xml version="1.0" encoding="UTF-8" standalone="no"?>
<!-- Created with Inkscape (http://www.inkscape.org/) -->

<svg
   width="152.69974mm"
   height="19.808472mm"
   viewBox="0 0 152.69974 19.808472"
   version="1.1"
   id="svg5"
   xml:space="preserve"
   xmlns:xlink="http://www.w3.org/1999/xlink"
   xmlns="http://www.w3.org/2000/svg"
   xmlns:svg="http://www.w3.org/2000/svg"><defs
     id="defs2"><linearGradient
       id="linearGradient3169"><stop
         style="stop-color:#191b30;stop-opacity:0.74527586;"
         offset="0"
         id="stop3165" /><stop
         style="stop-color:#ffffff;stop-opacity:1;"
         offset="1"
         id="stop3167" /></linearGradient><linearGradient
       xlink:href="#linearGradient3169"
       id="linearGradient3171"
       x1="143.17696"
       y1="183.43163"
       x2="183.27422"
       y2="183.43163"
       gradientUnits="userSpaceOnUse"
       gradientTransform="matrix(-0.52636325,0,0,0.52636325,243.96538,91.69822)" /></defs><g
     id="layer1"
     transform="translate(-15.902608,-178.34887)"><path
       d="m 151.67993,178.35432 c 0.1333,0.0357 0.60192,0.20476 0.75584,0.27348 0.10582,0.0481 0.24873,0.11132 0.31745,0.14155 0.0701,0.0302 0.20614,0.0976 0.30371,0.15117 0.43976,0.24187 0.65414,0.45075 0.86303,0.84378 0.0673,0.12918 0.38891,0.86028 0.42327,0.96611 0.0275,0.0824 0.0976,0.43426 0.11956,0.5978 0.0399,0.29546 0.15804,0.82592 0.24187,1.08703 0.0467,0.1443 0.0495,0.14842 0.14704,0.2405 0.13742,0.13055 0.29272,0.25423 0.44801,0.35455 0.0728,0.0481 0.18965,0.1333 0.25973,0.19102 0.18278,0.14842 0.78333,0.69675 0.84517,0.77233 0.099,0.11681 0.37105,0.39304 0.47549,0.47961 0.0577,0.0481 0.15803,0.12369 0.22262,0.17041 0.0646,0.0454 0.17866,0.14155 0.25424,0.21164 0.0742,0.0715 0.18827,0.16904 0.25286,0.21576 0.0646,0.0481 0.20889,0.1814 0.32295,0.29546 0.13605,0.1388 0.27485,0.2611 0.40953,0.3628 0.11132,0.0852 0.24737,0.1924 0.30234,0.23775 0.32432,0.27348 0.9015,0.67338 1.24645,0.86578 0.0357,0.0192 0.0921,0.0536 0.12505,0.077 0.0329,0.022 0.23912,0.15116 0.459,0.28584 0.21851,0.1333 0.49061,0.3092 0.60468,0.39028 0.22399,0.1608 0.34493,0.23638 0.53595,0.33807 0.13055,0.0687 0.18415,0.10445 0.41915,0.27622 0.25149,0.18278 0.34081,0.28585 0.4645,0.54146 0.10169,0.20889 0.17041,0.28035 0.34081,0.35593 0.29684,0.1333 0.43701,0.21302 0.64315,0.3683 0.11407,0.0866 0.24461,0.17453 0.28997,0.19515 0.0454,0.022 0.11956,0.0563 0.16353,0.0783 0.0454,0.0206 0.25837,0.15667 0.47412,0.30096 0.21714,0.14567 0.41777,0.27211 0.44801,0.28172 0.0976,0.0316 0.35456,0.15392 0.49336,0.23638 0.15666,0.0948 0.33943,0.17728 0.9496,0.43151 0.0976,0.0412 0.24325,0.10582 0.32295,0.14292 0.0797,0.0371 0.18415,0.0852 0.23362,0.10857 0.0962,0.0454 0.2515,0.13742 0.48099,0.28447 0.0783,0.0508 0.20202,0.11818 0.27348,0.14842 0.12918,0.055 0.13468,0.0605 0.35181,0.27622 0.21713,0.21576 0.22263,0.22263 0.2666,0.33532 0.0247,0.0632 0.0412,0.12231 0.0371,0.13331 -0.022,0.0577 -0.22951,0.0329 -0.49749,-0.0618 -0.10581,-0.0371 -0.29683,-0.1072 -0.42464,-0.15667 -0.52908,-0.20202 -1.10078,-0.38068 -1.22171,-0.38068 -0.0769,0 -0.066,0.0426 0.0399,0.14568 0.0495,0.0481 0.0893,0.0934 0.0893,0.10032 0,0.0206 0.22263,0.21026 0.4329,0.36967 0.10581,0.0797 0.22674,0.17454 0.26797,0.2089 0.1017,0.0866 0.17316,0.13329 0.34357,0.22674 0.1759,0.0962 0.21575,0.12643 0.39852,0.30234 0.16492,0.15941 0.25974,0.22675 0.46588,0.33256 0.18553,0.0962 0.1869,0.0976 0.15941,0.12781 -0.0206,0.0234 -0.0192,0.0275 0.0234,0.0591 0.0248,0.0192 0.0825,0.0522 0.12782,0.0756 0.0454,0.0233 0.0948,0.0508 0.10993,0.0632 0.0234,0.0192 0.0247,0.0234 0.007,0.0357 -0.0303,0.022 -0.12919,0.005 -0.26936,-0.0426 -0.0673,-0.022 -0.19102,-0.0564 -0.27622,-0.0742 -0.15117,-0.0329 -0.20752,-0.0522 -0.53047,-0.1759 -0.0893,-0.0343 -0.26247,-0.088 -0.38479,-0.11819 -0.29409,-0.0742 -0.60604,-0.17454 -0.90975,-0.29272 -0.13605,-0.0536 -0.37105,-0.14017 -0.52222,-0.19377 -0.15116,-0.0522 -0.37104,-0.12918 -0.48786,-0.17178 -0.35181,-0.12368 -0.93448,-0.31882 -1.04443,-0.34769 -0.0564,-0.0151 -0.1869,-0.0357 -0.28859,-0.0481 -0.10169,-0.011 -0.34082,-0.0508 -0.52909,-0.088 -0.18965,-0.0371 -0.67475,-0.11406 -1.07879,-0.17179 -0.90288,-0.12642 -1.03481,-0.14841 -1.2437,-0.20751 l -0.1649,-0.0467 h -0.47 c -0.37792,0 -0.49198,-0.004 -0.58131,-0.022 -0.0605,-0.0124 -0.11956,-0.0179 -0.13193,-0.0137 -0.0371,0.0137 0.022,0.066 0.1333,0.11819 0.0522,0.0234 0.0907,0.0495 0.0866,0.0563 -0.004,0.008 -0.0454,0.011 -0.0989,0.005 -0.15941,-0.0137 -0.16491,0.0288 -0.0151,0.10993 0.0522,0.0302 0.10169,0.0605 0.10994,0.0701 0.0357,0.0426 -0.01,0.0413 -0.16079,-0.003 -0.088,-0.0261 -0.16904,-0.0454 -0.17866,-0.0412 -0.011,0.004 -0.0192,0.022 -0.0192,0.0399 0,0.0756 -0.0467,0.0811 -0.21988,0.022 -0.12643,-0.0412 -0.17865,-0.0467 -0.18827,-0.0165 -0.007,0.0179 0.0316,0.0605 0.0728,0.0838 0.055,0.0303 0,0.033 -0.0824,0.004 -0.0687,-0.0247 -0.0948,-0.0275 -0.11682,-0.0165 -0.0399,0.022 -0.0481,0.0192 -0.11268,-0.0329 -0.0673,-0.0577 -0.10169,-0.0577 -0.10169,-0.003 -0.001,0.0467 -0.0248,0.0646 -0.0866,0.0646 -0.0646,0 -0.0673,0.0289 -0.0165,0.1388 0.0247,0.0536 0.0399,0.10032 0.0358,0.10581 -0.0166,0.0151 -0.0783,-0.0605 -0.12232,-0.14979 -0.0495,-0.0976 -0.0866,-0.11681 -0.0825,-0.0427 0,0.0248 0.0179,0.077 0.0371,0.11681 0.0192,0.0385 0.0316,0.0728 0.0289,0.0756 -0.005,0.005 -0.10719,-0.12231 -0.14017,-0.17591 -0.0289,-0.0495 -0.0577,-0.0618 -0.0687,-0.0316 -0.01,0.0247 0.006,0.088 0.0481,0.1924 0.0357,0.0879 0.0192,0.0948 -0.0371,0.0137 -0.0536,-0.0769 -0.1333,-0.15253 -0.14979,-0.14154 -0.008,0.004 -0.0179,0.0343 -0.0234,0.0673 -0.0165,0.10857 -0.0137,0.10581 -0.10582,0.10581 -0.0453,0 -0.10718,-0.007 -0.13742,-0.0165 -0.055,-0.0165 -0.0673,-0.011 -0.0838,0.0343 -0.001,0.007 -0.0371,-0.004 -0.0783,-0.0234 -0.0399,-0.0192 -0.0783,-0.0316 -0.0825,-0.0289 -0.006,0.004 -0.0137,0.0371 -0.0179,0.0756 -0.0124,0.0976 -0.0192,0.10444 -0.0701,0.0577 -0.0605,-0.0577 -0.0934,-0.0714 -0.12231,-0.055 -0.0192,0.01 -0.0357,0.003 -0.0783,-0.0357 -0.0303,-0.0275 -0.0632,-0.0495 -0.0742,-0.0495 -0.0316,0 -0.0536,0.0399 -0.0646,0.11957 -0.0124,0.0921 -0.0329,0.11955 -0.0618,0.0797 -0.0467,-0.066 -0.0797,-0.0907 -0.11406,-0.088 -0.0192,0.003 -0.0522,-0.007 -0.0728,-0.0206 -0.0673,-0.044 -0.0742,-0.0289 -0.0852,0.18003 -0.004,0.10444 -0.0179,0.23224 -0.0303,0.28584 -0.0124,0.0522 -0.0261,0.20751 -0.0316,0.34357 -0.011,0.24735 -0.011,0.24735 -0.066,0.38478 -0.0728,0.18003 -0.23362,0.72423 -0.29821,1.01008 -0.0192,0.0797 -0.0563,0.20888 -0.0838,0.28859 -0.0715,0.21026 -0.0976,0.3202 -0.13742,0.60193 -0.0192,0.13742 -0.0577,0.35455 -0.0852,0.48098 -0.0522,0.24461 -0.066,0.45076 -0.0329,0.53047 0.0151,0.0371 0.16217,0.20613 0.31333,0.36004 0.0907,0.0935 0.16354,0.11682 0.37518,0.12506 0.14292,0.006 0.16766,0.003 0.26798,-0.0303 0.10444,-0.0344 0.31058,-0.0687 0.47412,-0.0783 0.0701,-0.004 0.0838,0.001 0.1814,0.0618 0.13192,0.0825 0.224,0.1814 0.25011,0.2721 0.0316,0.10445 -0.008,0.1869 -0.0467,0.0962 -0.0316,-0.0783 -0.28035,-0.21713 -0.41365,-0.23088 -0.0605,-0.006 -0.0797,-0.003 -0.10857,0.0206 -0.0329,0.0275 -0.0329,0.0275 -0.0165,0.13055 0.0206,0.11681 0.0151,0.13605 -0.0536,0.19377 -0.0316,0.0275 -0.0563,0.0357 -0.10582,0.0357 -0.10719,-0.001 -0.24874,-0.0261 -0.30509,-0.055 -0.0989,-0.0508 -0.16353,-0.0563 -0.2611,-0.0261 -0.11132,0.0343 -0.1869,0.0275 -0.32157,-0.0316 -0.0728,-0.0316 -0.11956,-0.0427 -0.1869,-0.044 l -0.0893,-0.001 -0.0192,0.0783 c -0.011,0.0495 -0.0343,0.0976 -0.0618,0.12918 l -0.044,0.0508 -0.2666,0.011 c -0.29134,0.0124 -0.32845,0.0165 -0.43701,0.0508 -0.0673,0.0206 -0.077,0.0206 -0.1443,-0.003 -0.0687,-0.0234 -0.088,-0.0234 -0.38067,-0.003 -0.23225,0.0165 -0.32845,0.0288 -0.38891,0.0495 -0.10994,0.0385 -0.26523,0.0701 -0.29409,0.0591 -0.0137,-0.004 -0.0427,-0.0234 -0.0632,-0.0399 -0.0206,-0.0179 -0.0646,-0.0385 -0.0962,-0.0467 -0.0316,-0.007 -0.0838,-0.0261 -0.11407,-0.0426 -0.0536,-0.0261 -0.0673,-0.0275 -0.20614,-0.0137 -0.2556,0.0261 -0.31607,0.022 -0.42464,-0.0303 -0.10307,-0.0495 -0.32982,-0.11955 -0.38617,-0.11955 -0.0399,0 -0.0893,0.0467 -0.17865,0.16628 -0.0303,0.0412 -0.10307,0.11132 -0.16216,0.15529 l -0.10719,0.0797 -0.22126,0.0247 c -0.1223,0.0137 -0.28584,0.0357 -0.3628,0.0467 -0.17453,0.0275 -0.235,0.0275 -0.27897,10e-4 -0.12094,-0.0715 -0.15667,-0.0811 -0.28173,-0.0797 -0.12505,0 -0.2185,0.0137 -0.40127,0.055 -0.099,0.0234 -0.1333,0.0179 -0.10308,-0.0124 0.0234,-0.0234 0.0206,-0.0618 -0.005,-0.0715 -0.011,-0.004 -0.066,0.001 -0.11956,0.0124 -0.19514,0.0426 -0.24462,0.0495 -0.27348,0.0399 -0.022,-0.007 -0.12506,-0.077 -0.20338,-0.13879 -0.003,-0.004 -0.004,-0.0412 -0.003,-0.0852 0.006,-0.0934 -0.01,-0.11268 -0.11956,-0.14429 -0.1017,-0.0303 -0.12643,-0.0289 -0.31058,0.0192 -0.25149,0.0646 -0.29959,0.0536 -0.19514,-0.0467 0.16215,-0.15529 0.53458,-0.20751 0.74072,-0.10307 0.0715,0.0371 0.0962,0.0329 0.22263,-0.0275 0.1278,-0.0618 0.25286,-0.0976 0.34218,-0.0976 0.0329,0 0.12232,0.0192 0.19652,0.0426 0.18553,0.0577 0.35594,0.0948 0.43839,0.0948 0.0838,0 0.27622,-0.0329 0.37105,-0.0632 0.0371,-0.0124 0.13468,-0.0563 0.21575,-0.0962 0.0797,-0.0399 0.1759,-0.0797 0.21301,-0.0879 0.1443,-0.0343 0.14567,-0.0357 0.16216,-0.15529 0.008,-0.0646 0.008,-0.066 0.18965,-0.19927 0.36556,-0.27072 0.43564,-0.34081 0.77646,-0.76545 0.10306,-0.12919 0.24599,-0.29547 0.31882,-0.37105 0.18141,-0.18827 0.31333,-0.33944 0.47275,-0.54283 0.0742,-0.0948 0.22125,-0.25699 0.32707,-0.36005 0.10444,-0.10444 0.19514,-0.20339 0.20201,-0.22126 0.01,-0.0233 0.004,-0.0618 -0.0137,-0.12781 -0.022,-0.0756 -0.0261,-0.11955 -0.0192,-0.2185 0.004,-0.0687 0.0165,-0.35318 0.0275,-0.63216 0.0124,-0.28034 0.0248,-0.51947 0.0289,-0.53321 0.0151,-0.0467 0.007,-0.26248 -0.0151,-0.38754 -0.011,-0.0687 -0.0206,-0.15804 -0.0206,-0.19926 0,-0.11407 -0.0179,-0.13743 -0.13055,-0.17178 -0.0536,-0.0165 -0.12094,-0.0454 -0.15117,-0.066 -0.0303,-0.0206 -0.0618,-0.0371 -0.0701,-0.0371 -0.008,0 -0.0605,-0.0316 -0.11681,-0.0715 -0.0563,-0.0385 -0.15804,-0.099 -0.22538,-0.13467 -0.0687,-0.0357 -0.14842,-0.077 -0.17865,-0.0935 -0.0303,-0.0165 -0.1388,-0.0687 -0.2405,-0.11406 l -0.18552,-0.0852 -0.17453,-0.008 -0.17316,-0.008 -0.11543,-0.0783 c -0.25011,-0.1704 -0.5497,-0.46175 -0.76546,-0.74622 -0.0948,-0.12505 -0.24737,-0.29821 -0.38479,-0.43976 -0.2776,-0.28309 -0.54421,-0.58542 -0.72836,-0.8218 -0.0742,-0.0976 -0.20201,-0.24874 -0.28172,-0.33807 -0.0797,-0.0893 -0.15666,-0.17728 -0.17041,-0.19514 -0.0563,-0.0756 -0.213,-0.33669 -0.33257,-0.5552 -0.0701,-0.12918 -0.14704,-0.26111 -0.17178,-0.29546 -0.0618,-0.0852 -0.13329,-0.23225 -0.22812,-0.46724 -0.044,-0.10858 -0.0989,-0.22676 -0.11956,-0.26111 -0.022,-0.0343 -0.0742,-0.11544 -0.11406,-0.18003 -0.0413,-0.0646 -0.10032,-0.17316 -0.12919,-0.2405 -0.0303,-0.0673 -0.0783,-0.16353 -0.10581,-0.21438 -0.0289,-0.0508 -0.0646,-0.12506 -0.0811,-0.16491 -0.0151,-0.0399 -0.0495,-0.11544 -0.0756,-0.16628 -0.0385,-0.0742 -0.0591,-0.14979 -0.1017,-0.36968 -0.0303,-0.15254 -0.0728,-0.34219 -0.0948,-0.42189 -0.0495,-0.17865 -0.0508,-0.18965 -0.077,-0.45901 -0.0165,-0.17865 -0.0303,-0.24736 -0.0742,-0.38478 l -0.055,-0.16766 -0.006,-0.41228 c -0.004,-0.38616 -0.007,-0.41639 -0.0343,-0.47412 -0.0151,-0.0343 -0.0329,-0.10307 -0.0385,-0.15117 -0.007,-0.0769 -0.003,-0.11268 0.0357,-0.24735 0.0481,-0.17179 0.23224,-0.64316 0.31195,-0.8012 0.0261,-0.055 0.0756,-0.14155 0.10995,-0.1924 0.0715,-0.11131 0.1759,-0.31607 0.21438,-0.42189 0.0234,-0.0632 0.0288,-0.11818 0.033,-0.35043 0.008,-0.35731 -0.0137,-0.53871 -0.099,-0.80532 -0.0783,-0.24186 -0.0962,-0.2776 -0.18827,-0.36554 -0.11956,-0.1127 -0.19377,-0.14431 -0.48511,-0.20477 -0.1759,-0.0358 -0.26523,-0.0618 -0.63215,-0.17865 -0.29547,-0.0962 -0.41366,-0.14017 -0.4329,-0.16354 -0.011,-0.0137 -0.003,-0.0234 0.044,-0.0468 0.077,-0.0357 0.26522,-0.066 0.54008,-0.0838 0.2666,-0.0165 0.31332,-0.0234 0.30508,-0.0454 -0.004,-0.0124 -0.0715,-0.0165 -0.25149,-0.0151 -0.25286,0.003 -0.53184,0.0303 -0.66376,0.0687 -0.0399,0.011 -0.077,0.0179 -0.0811,0.0137 -0.004,-0.005 0,-0.0234 0.01,-0.0413 0.0536,-0.10032 0.28997,-0.2776 0.53183,-0.39716 0.2034,-0.1017 0.21714,-0.10719 0.56207,-0.2295 0.16629,-0.0591 0.38205,-0.13605 0.47824,-0.17041 0.0962,-0.0343 0.19102,-0.0632 0.21026,-0.0632 0.0522,0 0.10307,-0.0316 0.16491,-0.10582 0.10033,-0.11681 0.42052,-0.28035 0.86716,-0.44113 0.43701,-0.15941 0.56207,-0.18278 1.00046,-0.18827 0.1814,-0.003 0.34218,-0.003 0.3573,0.001 z m 4.27942,15.36414 c -0.0151,0.28036 -0.055,0.41365 -0.16766,0.56207 -0.0343,0.044 -0.0742,0.10995 -0.0866,0.1443 -0.0783,0.21026 -0.22263,0.42189 -0.3628,0.52909 -0.1869,0.14292 -0.25698,0.20339 -0.52772,0.45625 -0.41914,0.39304 -0.49335,0.46862 -0.67475,0.69812 -0.16216,0.20477 -0.27073,0.32845 -0.5497,0.62529 -0.16628,0.17727 -0.24187,0.27897 -0.31608,0.42051 -0.0605,0.11682 -0.0577,0.14843 0.0179,0.17041 0.1072,0.0288 0.48374,0.0728 0.64865,0.0742 0.16766,0.001 0.1759,0 0.30509,-0.0508 0.18414,-0.0701 0.29821,-0.0948 0.44525,-0.0976 0.12093,-0.001 0.12643,0 0.21027,0.0522 0.11406,0.0701 0.18277,0.0783 0.24873,0.0303 0.0261,-0.0192 0.077,-0.0522 0.11407,-0.0728 0.25149,-0.14705 0.27347,-0.1704 0.29821,-0.3257 0.008,-0.0536 0.0303,-0.14979 0.0481,-0.21438 0.0192,-0.0646 0.0467,-0.18278 0.0618,-0.26248 0.0151,-0.0797 0.0467,-0.19927 0.0701,-0.26798 0.0577,-0.16903 0.17729,-0.62253 0.32296,-1.22171 0.0399,-0.16628 0.0976,-0.38342 0.1278,-0.48099 0.0728,-0.24324 0.11407,-0.44113 0.10857,-0.52909 -0.004,-0.0632 -0.01,-0.0769 -0.0412,-0.0948 -0.0467,-0.0275 -0.1814,-0.18003 -0.21163,-0.23912 -0.0618,-0.12231 -0.0797,-0.10307 -0.0893,0.0948 z m -1.33165,3.81218 c 0,0.0371 0.0398,0.055 0.14429,0.0646 0.077,0.007 0.0893,0.006 0.0976,-0.0165 0.0179,-0.0454 -0.0399,-0.0756 -0.14704,-0.0756 -0.0852,0 -0.0948,0.003 -0.0948,0.0275 z"
       id="path2767"
       style="fill:url(#linearGradient3171);fill-opacity:1;stroke:none;stroke-width:0.00137426" /><text
       xml:space="preserve"
       style="font-size:27.6558px;fill:#ffffff;fill-opacity:1;stroke-width:25.1384;stroke-linecap:round;stroke-linejoin:round"
       x="13.836526"
       y="198.15733"
       id="text3227"><tspan
         id="tspan3225"
         style="font-style:normal;font-variant:normal;font-weight:normal;font-stretch:normal;font-family:'Arial Black';-inkscape-font-specification:'Arial Black, ';fill:#ffffff;fill-opacity:1;stroke-width:25.1384"
         x="13.836526"
         y="198.15733">NAAKKA</tspan></text></g></svg>
